<mxfile host="app.diagrams.net" modified="2022-11-28T12:07:40.508Z" agent="5.0 (Windows NT 10.0; Win64; x64) AppleWebKit/537.36 (KHTML, like Gecko) Chrome/107.0.0.0 Safari/537.36" version="20.6.0" etag="_4Q123gxPYsXWOB0uy6r" type="github">
  <diagram id="rO5LfurVTnsM8weZ-RfK" name="Page-1">
    <mxGraphModel dx="1038" dy="521" grid="1" gridSize="10" guides="1" tooltips="1" connect="1" arrows="1" fold="1" page="1" pageScale="1" pageWidth="850" pageHeight="1100" background="#F1FAEE" math="0" shadow="0">
      <root>
        <mxCell id="0" />
        <mxCell id="1" parent="0" />
        <mxCell id="G67UYWPQfRbL8nfXHm1S-1" value="USER" style="shape=umlActor;verticalLabelPosition=bottom;verticalAlign=top;html=1;fillColor=#A8DADC;strokeColor=#457B9D;fontColor=#1D3557;" vertex="1" parent="1">
          <mxGeometry x="40" y="300" width="30" height="60" as="geometry" />
        </mxCell>
        <mxCell id="G67UYWPQfRbL8nfXHm1S-26" style="edgeStyle=orthogonalEdgeStyle;rounded=0;orthogonalLoop=1;jettySize=auto;html=1;exitX=1;exitY=0.25;exitDx=0;exitDy=0;entryX=0;entryY=0.25;entryDx=0;entryDy=0;labelBackgroundColor=#F1FAEE;strokeColor=#457B9D;fontColor=#1D3557;" edge="1" parent="1" source="G67UYWPQfRbL8nfXHm1S-11" target="G67UYWPQfRbL8nfXHm1S-23">
          <mxGeometry relative="1" as="geometry" />
        </mxCell>
        <mxCell id="G67UYWPQfRbL8nfXHm1S-29" style="edgeStyle=orthogonalEdgeStyle;rounded=0;orthogonalLoop=1;jettySize=auto;html=1;exitX=0.75;exitY=1;exitDx=0;exitDy=0;entryX=0.25;entryY=1;entryDx=0;entryDy=0;labelBackgroundColor=#F1FAEE;strokeColor=#457B9D;fontColor=#1D3557;" edge="1" parent="1" source="G67UYWPQfRbL8nfXHm1S-11" target="G67UYWPQfRbL8nfXHm1S-24">
          <mxGeometry relative="1" as="geometry" />
        </mxCell>
        <mxCell id="G67UYWPQfRbL8nfXHm1S-11" value="Client Application" style="rounded=0;whiteSpace=wrap;html=1;fillColor=#A8DADC;strokeColor=#457B9D;fontColor=#1D3557;" vertex="1" parent="1">
          <mxGeometry x="130" y="300" width="120" height="60" as="geometry" />
        </mxCell>
        <mxCell id="G67UYWPQfRbL8nfXHm1S-30" style="edgeStyle=orthogonalEdgeStyle;rounded=0;orthogonalLoop=1;jettySize=auto;html=1;exitX=0;exitY=0.75;exitDx=0;exitDy=0;entryX=1;entryY=0.75;entryDx=0;entryDy=0;dashed=1;labelBackgroundColor=#F1FAEE;strokeColor=#457B9D;fontColor=#1D3557;" edge="1" parent="1" source="G67UYWPQfRbL8nfXHm1S-23" target="G67UYWPQfRbL8nfXHm1S-11">
          <mxGeometry relative="1" as="geometry" />
        </mxCell>
        <mxCell id="G67UYWPQfRbL8nfXHm1S-23" value="DATABASE" style="rounded=0;whiteSpace=wrap;html=1;fillColor=#A8DADC;strokeColor=#457B9D;fontColor=#1D3557;" vertex="1" parent="1">
          <mxGeometry x="310" y="300" width="120" height="60" as="geometry" />
        </mxCell>
        <mxCell id="G67UYWPQfRbL8nfXHm1S-31" style="edgeStyle=orthogonalEdgeStyle;rounded=0;orthogonalLoop=1;jettySize=auto;html=1;exitX=0.25;exitY=0;exitDx=0;exitDy=0;entryX=0.25;entryY=0;entryDx=0;entryDy=0;dashed=1;labelBackgroundColor=#F1FAEE;strokeColor=#457B9D;fontColor=#1D3557;" edge="1" parent="1" source="G67UYWPQfRbL8nfXHm1S-24" target="G67UYWPQfRbL8nfXHm1S-11">
          <mxGeometry relative="1" as="geometry" />
        </mxCell>
        <mxCell id="G67UYWPQfRbL8nfXHm1S-32" style="edgeStyle=orthogonalEdgeStyle;rounded=0;orthogonalLoop=1;jettySize=auto;html=1;exitX=1;exitY=0.5;exitDx=0;exitDy=0;entryX=0;entryY=0.5;entryDx=0;entryDy=0;dashed=1;labelBackgroundColor=#F1FAEE;strokeColor=#457B9D;fontColor=#1D3557;" edge="1" parent="1" source="G67UYWPQfRbL8nfXHm1S-24" target="G67UYWPQfRbL8nfXHm1S-25">
          <mxGeometry relative="1" as="geometry" />
        </mxCell>
        <mxCell id="G67UYWPQfRbL8nfXHm1S-24" value="WEB SERVER" style="rounded=0;whiteSpace=wrap;html=1;fillColor=#A8DADC;strokeColor=#457B9D;fontColor=#1D3557;" vertex="1" parent="1">
          <mxGeometry x="490" y="300" width="120" height="60" as="geometry" />
        </mxCell>
        <mxCell id="G67UYWPQfRbL8nfXHm1S-25" value="API" style="rounded=0;whiteSpace=wrap;html=1;fillColor=#A8DADC;strokeColor=#457B9D;fontColor=#1D3557;" vertex="1" parent="1">
          <mxGeometry x="670" y="300" width="120" height="60" as="geometry" />
        </mxCell>
        <mxCell id="G67UYWPQfRbL8nfXHm1S-33" value="1. USER ACCESS&lt;br&gt;2. REQUEST CATEGORY&lt;br&gt;3. LIST OF CATEGORY&lt;br&gt;4. SELECT USER PREFERENCE&lt;br&gt;5. AVAILABLE FLIGHT PREFERENCE&lt;br&gt;6. GET COORDINATES&lt;br&gt;7. SELECT PARAMETERS&lt;br&gt;8. PASS ROUTE TO API&lt;br&gt;9. RETURN WEATHER/MAP&lt;br&gt;10. OPTIMAL RECOMENDATION&lt;br&gt;" style="text;html=1;align=center;verticalAlign=middle;resizable=0;points=[];autosize=1;strokeColor=none;fillColor=none;fontColor=#1D3557;" vertex="1" parent="1">
          <mxGeometry x="590" y="50" width="230" height="160" as="geometry" />
        </mxCell>
      </root>
    </mxGraphModel>
  </diagram>
</mxfile>
